<?xml version="1.0" encoding="UTF-8" standalone="no"?>
<!DOCTYPE svg PUBLIC "-//W3C//DTD SVG 1.1//EN"
 "http://www.w3.org/Graphics/SVG/1.1/DTD/svg11.dtd">
<!-- Generated by graphviz version 2.38.0 (20140413.2041)
 -->
<!-- Title: %3 Pages: 1 -->
<svg width="558pt" height="413pt"
 viewBox="0.00 0.00 557.69 413.00" xmlns="http://www.w3.org/2000/svg" xmlns:xlink="http://www.w3.org/1999/xlink">
<g id="graph0" class="graph" transform="scale(1 1) rotate(0) translate(4 409)">
<title>%3</title>
<polygon fill="white" stroke="none" points="-4,4 -4,-409 553.694,-409 553.694,4 -4,4"/>
<!-- termo -->
<g id="node1" class="node"><title>termo</title>
<ellipse fill="none" stroke="black" cx="31.8472" cy="-300" rx="31.6951" ry="18"/>
<text text-anchor="middle" x="31.8472" y="-296.3" font-family="Times,serif" font-size="14.00">termo</text>
</g>
<!-- IoT -->
<g id="node2" class="node"><title>IoT</title>
<ellipse fill="none" stroke="black" cx="53.8472" cy="-159" rx="27" ry="18"/>
<text text-anchor="middle" x="53.8472" y="-155.3" font-family="Times,serif" font-size="14.00">IoT</text>
</g>
<!-- termo&#45;&gt;IoT -->
<g id="edge1" class="edge"><title>termo&#45;&gt;IoT</title>
<path fill="none" stroke="blue" d="M31.7685,-281.81C31.9158,-272.135 32.4226,-259.853 33.8472,-249 36.6122,-227.935 41.9717,-204.506 46.4471,-186.976"/>
<polygon fill="blue" stroke="blue" points="49.9389,-187.458 49.0883,-176.898 43.1676,-185.684 49.9389,-187.458"/>
<text text-anchor="middle" x="43.8472" y="-252.8" font-family="Times,serif" font-size="14.00">ako</text>
</g>
<!-- Linux -->
<g id="node4" class="node"><title>Linux</title>
<ellipse fill="none" stroke="black" cx="127.847" cy="-213" rx="31.6951" ry="18"/>
<text text-anchor="middle" x="127.847" y="-209.3" font-family="Times,serif" font-size="14.00">Linux</text>
</g>
<!-- termo&#45;&gt;Linux -->
<g id="edge3" class="edge"><title>termo&#45;&gt;Linux</title>
<path fill="none" stroke="red" d="M42.1639,-282.919C49.3763,-272.467 59.6856,-258.979 70.8472,-249 78.4288,-242.222 87.494,-235.985 96.1404,-230.712"/>
<polygon fill="red" stroke="red" points="98.0497,-233.65 104.919,-225.585 94.5192,-227.606 98.0497,-233.65"/>
<text text-anchor="middle" x="80.3472" y="-252.8" font-family="Times,serif" font-size="14.00">use</text>
</g>
<!-- platform -->
<g id="node3" class="node"><title>platform</title>
<ellipse fill="none" stroke="black" cx="127.847" cy="-18" rx="41.6928" ry="18"/>
<text text-anchor="middle" x="127.847" y="-14.3" font-family="Times,serif" font-size="14.00">platform</text>
</g>
<!-- IoT&#45;&gt;platform -->
<g id="edge2" class="edge"><title>IoT&#45;&gt;platform</title>
<path fill="none" stroke="blue" d="M56.0233,-140.906C58.4085,-126.042 63.1174,-104.245 71.8472,-87 80.1763,-70.5462 93.0839,-54.5055 104.409,-42.1394"/>
<polygon fill="blue" stroke="blue" points="107.232,-44.2478 111.558,-34.5764 102.145,-39.4391 107.232,-44.2478"/>
<text text-anchor="middle" x="81.8472" y="-101.3" font-family="Times,serif" font-size="14.00">ako</text>
</g>
<!-- OS -->
<g id="node5" class="node"><title>OS</title>
<ellipse fill="none" stroke="black" cx="127.847" cy="-105" rx="27" ry="18"/>
<text text-anchor="middle" x="127.847" y="-101.3" font-family="Times,serif" font-size="14.00">OS</text>
</g>
<!-- Linux&#45;&gt;OS -->
<g id="edge4" class="edge"><title>Linux&#45;&gt;OS</title>
<path fill="none" stroke="blue" d="M127.847,-194.969C127.847,-178.378 127.847,-152.883 127.847,-133.431"/>
<polygon fill="blue" stroke="blue" points="131.347,-133.341 127.847,-123.341 124.347,-133.341 131.347,-133.341"/>
<text text-anchor="middle" x="137.847" y="-155.3" font-family="Times,serif" font-size="14.00">ako</text>
</g>
<!-- OS&#45;&gt;platform -->
<g id="edge11" class="edge"><title>OS&#45;&gt;platform</title>
<path fill="none" stroke="cyan" d="M127.847,-86.799C127.847,-75.1626 127.847,-59.5479 127.847,-46.2368"/>
<polygon fill="cyan" stroke="cyan" points="131.347,-46.1754 127.847,-36.1754 124.347,-46.1755 131.347,-46.1754"/>
<text text-anchor="middle" x="133.347" y="-57.8" font-family="Times,serif" font-size="14.00">in</text>
</g>
<!-- PC -->
<g id="node6" class="node"><title>PC</title>
<ellipse fill="none" stroke="black" cx="385.847" cy="-300" rx="27" ry="18"/>
<text text-anchor="middle" x="385.847" y="-296.3" font-family="Times,serif" font-size="14.00">PC</text>
</g>
<!-- PC&#45;&gt;Linux -->
<g id="edge5" class="edge"><title>PC&#45;&gt;Linux</title>
<path fill="none" stroke="red" d="M362.038,-291.156C316.801,-276.252 218.166,-243.756 164.464,-226.064"/>
<polygon fill="red" stroke="red" points="165.26,-222.641 154.667,-222.836 163.07,-229.289 165.26,-222.641"/>
<text text-anchor="middle" x="282.347" y="-252.8" font-family="Times,serif" font-size="14.00">use</text>
</g>
<!-- hardware -->
<g id="node9" class="node"><title>hardware</title>
<ellipse fill="none" stroke="black" cx="314.847" cy="-213" rx="43.5923" ry="18"/>
<text text-anchor="middle" x="314.847" y="-209.3" font-family="Times,serif" font-size="14.00">hardware</text>
</g>
<!-- PC&#45;&gt;hardware -->
<g id="edge8" class="edge"><title>PC&#45;&gt;hardware</title>
<path fill="none" stroke="blue" d="M373.154,-283.804C362.519,-271.072 347.149,-252.671 334.859,-237.958"/>
<polygon fill="blue" stroke="blue" points="337.495,-235.653 328.398,-230.222 332.122,-240.141 337.495,-235.653"/>
<text text-anchor="middle" x="363.847" y="-252.8" font-family="Times,serif" font-size="14.00">ako</text>
</g>
<!-- Raspberry -->
<g id="node7" class="node"><title>Raspberry</title>
<ellipse fill="none" stroke="black" cx="158.847" cy="-387" rx="46.5926" ry="18"/>
<text text-anchor="middle" x="158.847" y="-383.3" font-family="Times,serif" font-size="14.00">Raspberry</text>
</g>
<!-- Raspberry&#45;&gt;Linux -->
<g id="edge6" class="edge"><title>Raspberry&#45;&gt;Linux</title>
<path fill="none" stroke="red" d="M145.428,-369.595C135.646,-356.516 123.204,-337.258 117.847,-318 110.737,-292.436 115.018,-262.129 119.993,-240.847"/>
<polygon fill="red" stroke="red" points="123.45,-241.453 122.523,-230.899 116.666,-239.728 123.45,-241.453"/>
<text text-anchor="middle" x="127.347" y="-296.3" font-family="Times,serif" font-size="14.00">use</text>
</g>
<!-- Raspberry&#45;&gt;hardware -->
<g id="edge9" class="edge"><title>Raspberry&#45;&gt;hardware</title>
<path fill="none" stroke="blue" d="M155.479,-368.79C152.145,-346.623 149.826,-307.878 167.847,-282 190.347,-249.691 232.208,-232.383 265.521,-223.331"/>
<polygon fill="blue" stroke="blue" points="266.726,-226.636 275.555,-220.779 265,-219.852 266.726,-226.636"/>
<text text-anchor="middle" x="177.847" y="-296.3" font-family="Times,serif" font-size="14.00">ako</text>
</g>
<!-- embedded_PC -->
<g id="node12" class="node"><title>embedded_PC</title>
<ellipse fill="none" stroke="black" cx="258.847" cy="-300" rx="62.2891" ry="18"/>
<text text-anchor="middle" x="258.847" y="-296.3" font-family="Times,serif" font-size="14.00">embedded_PC</text>
</g>
<!-- Raspberry&#45;&gt;embedded_PC -->
<g id="edge17" class="edge"><title>Raspberry&#45;&gt;embedded_PC</title>
<path fill="none" stroke="blue" d="M177.189,-370.41C192.404,-357.477 214.263,-338.896 231.537,-324.214"/>
<polygon fill="blue" stroke="blue" points="234.247,-326.504 239.599,-317.361 229.713,-321.17 234.247,-326.504"/>
<text text-anchor="middle" x="224.847" y="-339.8" font-family="Times,serif" font-size="14.00">ako</text>
</g>
<!-- MR3020 -->
<g id="node8" class="node"><title>MR3020</title>
<ellipse fill="none" stroke="black" cx="464.847" cy="-387" rx="42.4939" ry="18"/>
<text text-anchor="middle" x="464.847" y="-383.3" font-family="Times,serif" font-size="14.00">MR3020</text>
</g>
<!-- MR3020&#45;&gt;Linux -->
<g id="edge7" class="edge"><title>MR3020&#45;&gt;Linux</title>
<path fill="none" stroke="red" d="M460.751,-368.715C454.917,-346.814 442.562,-308.709 421.847,-282 406.866,-262.684 400.444,-258.323 377.847,-249 368.31,-245.065 237.502,-227.977 169.016,-219.219"/>
<polygon fill="red" stroke="red" points="169.349,-215.733 158.986,-217.939 168.463,-222.677 169.349,-215.733"/>
<text text-anchor="middle" x="451.347" y="-296.3" font-family="Times,serif" font-size="14.00">use</text>
</g>
<!-- router -->
<g id="node11" class="node"><title>router</title>
<ellipse fill="none" stroke="black" cx="517.847" cy="-300" rx="31.6951" ry="18"/>
<text text-anchor="middle" x="517.847" y="-296.3" font-family="Times,serif" font-size="14.00">router</text>
</g>
<!-- MR3020&#45;&gt;router -->
<g id="edge13" class="edge"><title>MR3020&#45;&gt;router</title>
<path fill="none" stroke="blue" d="M475.318,-369.207C483.039,-356.824 493.668,-339.778 502.369,-325.824"/>
<polygon fill="blue" stroke="blue" points="505.436,-327.519 507.757,-317.182 499.496,-323.815 505.436,-327.519"/>
<text text-anchor="middle" x="503.847" y="-339.8" font-family="Times,serif" font-size="14.00">ako</text>
</g>
<!-- hardware&#45;&gt;platform -->
<g id="edge10" class="edge"><title>hardware&#45;&gt;platform</title>
<path fill="none" stroke="cyan" d="M299.225,-195.877C266.143,-161.733 188.907,-82.0194 150.444,-42.322"/>
<polygon fill="cyan" stroke="cyan" points="152.765,-39.6878 143.293,-34.9415 147.738,-44.5588 152.765,-39.6878"/>
<text text-anchor="middle" x="233.347" y="-101.3" font-family="Times,serif" font-size="14.00">in</text>
</g>
<!-- PC104 -->
<g id="node10" class="node"><title>PC104</title>
<ellipse fill="none" stroke="black" cx="338.847" cy="-387" rx="34.394" ry="18"/>
<text text-anchor="middle" x="338.847" y="-383.3" font-family="Times,serif" font-size="14.00">PC104</text>
</g>
<!-- PC104&#45;&gt;PC -->
<g id="edge12" class="edge"><title>PC104&#45;&gt;PC</title>
<path fill="none" stroke="blue" d="M347.909,-369.611C354.715,-357.303 364.158,-340.226 371.92,-326.187"/>
<polygon fill="blue" stroke="blue" points="375.196,-327.495 376.972,-317.05 369.07,-324.108 375.196,-327.495"/>
<text text-anchor="middle" x="374.847" y="-339.8" font-family="Times,serif" font-size="14.00">ako</text>
</g>
<!-- PC104&#45;&gt;embedded_PC -->
<g id="edge15" class="edge"><title>PC104&#45;&gt;embedded_PC</title>
<path fill="none" stroke="blue" d="M324.174,-370.41C312.299,-357.793 295.366,-339.801 281.715,-325.297"/>
<polygon fill="blue" stroke="blue" points="283.924,-322.537 274.521,-317.654 278.826,-327.335 283.924,-322.537"/>
<text text-anchor="middle" x="313.847" y="-339.8" font-family="Times,serif" font-size="14.00">ako</text>
</g>
<!-- router&#45;&gt;hardware -->
<g id="edge14" class="edge"><title>router&#45;&gt;hardware</title>
<path fill="none" stroke="blue" d="M504.485,-283.168C494.207,-271.993 479.058,-257.543 462.847,-249 433.073,-233.309 396.255,-224.566 366.79,-219.742"/>
<polygon fill="blue" stroke="blue" points="367.113,-216.251 356.698,-218.195 366.052,-223.17 367.113,-216.251"/>
<text text-anchor="middle" x="493.847" y="-252.8" font-family="Times,serif" font-size="14.00">ako</text>
</g>
<!-- embedded_PC&#45;&gt;PC -->
<g id="edge16" class="edge"><title>embedded_PC&#45;&gt;PC</title>
<path fill="none" stroke="blue" d="M321.603,-300C330.743,-300 339.903,-300 348.326,-300"/>
<polygon fill="blue" stroke="blue" points="348.544,-303.5 358.544,-300 348.544,-296.5 348.544,-303.5"/>
<text text-anchor="middle" x="340.044" y="-306.8" font-family="Times,serif" font-size="14.00">ako</text>
</g>
</g>
</svg>
