<?xml version="1.0" encoding="UTF-8" standalone="no"?>
<!DOCTYPE svg PUBLIC "-//W3C//DTD SVG 1.1//EN"
 "http://www.w3.org/Graphics/SVG/1.1/DTD/svg11.dtd">
<!-- Generated by graphviz version 2.38.0 (20140413.2041)
 -->
<!-- Title: %3 Pages: 1 -->
<svg width="573pt" height="392pt"
 viewBox="0.00 0.00 572.54 392.00" xmlns="http://www.w3.org/2000/svg" xmlns:xlink="http://www.w3.org/1999/xlink">
<g id="graph0" class="graph" transform="scale(1 1) rotate(0) translate(4 388)">
<title>%3</title>
<polygon fill="white" stroke="none" points="-4,4 -4,-388 568.543,-388 568.543,4 -4,4"/>
<!-- termo -->
<g id="node1" class="node"><title>termo</title>
<ellipse fill="none" stroke="black" cx="50.6955" cy="-279" rx="31.6951" ry="18"/>
<text text-anchor="middle" x="50.6955" y="-275.3" font-family="Times,serif" font-size="14.00">termo</text>
</g>
<!-- IoT_device -->
<g id="node2" class="node"><title>IoT_device</title>
<ellipse fill="none" stroke="black" cx="50.6955" cy="-192" rx="50.8918" ry="18"/>
<text text-anchor="middle" x="50.6955" y="-188.3" font-family="Times,serif" font-size="14.00">IoT_device</text>
</g>
<!-- termo&#45;&gt;IoT_device -->
<g id="edge1" class="edge"><title>termo&#45;&gt;IoT_device</title>
<path fill="none" stroke="blue" d="M50.6955,-260.799C50.6955,-249.163 50.6955,-233.548 50.6955,-220.237"/>
<polygon fill="blue" stroke="blue" points="54.1956,-220.175 50.6955,-210.175 47.1956,-220.175 54.1956,-220.175"/>
<text text-anchor="middle" x="60.6955" y="-231.8" font-family="Times,serif" font-size="14.00">ako</text>
</g>
<!-- Linux -->
<g id="node3" class="node"><title>Linux</title>
<ellipse fill="none" stroke="black" cx="314.696" cy="-192" rx="31.6951" ry="18"/>
<text text-anchor="middle" x="314.696" y="-188.3" font-family="Times,serif" font-size="14.00">Linux</text>
</g>
<!-- termo&#45;&gt;Linux -->
<g id="edge2" class="edge"><title>termo&#45;&gt;Linux</title>
<path fill="none" stroke="red" d="M75.2604,-267.36C80.6383,-265.159 86.3284,-262.926 91.6955,-261 155.844,-237.982 232.083,-215.825 276.754,-203.355"/>
<polygon fill="red" stroke="red" points="277.899,-206.669 286.598,-200.621 276.026,-199.924 277.899,-206.669"/>
<text text-anchor="middle" x="199.196" y="-231.8" font-family="Times,serif" font-size="14.00">use</text>
</g>
<!-- OS -->
<g id="node4" class="node"><title>OS</title>
<ellipse fill="none" stroke="black" cx="336.696" cy="-105" rx="27" ry="18"/>
<text text-anchor="middle" x="336.696" y="-101.3" font-family="Times,serif" font-size="14.00">OS</text>
</g>
<!-- Linux&#45;&gt;OS -->
<g id="edge3" class="edge"><title>Linux&#45;&gt;OS</title>
<path fill="none" stroke="blue" d="M319.148,-173.799C322.209,-161.97 326.335,-146.03 329.816,-132.578"/>
<polygon fill="blue" stroke="blue" points="333.208,-133.443 332.325,-122.885 326.431,-131.689 333.208,-133.443"/>
<text text-anchor="middle" x="337.696" y="-144.8" font-family="Times,serif" font-size="14.00">ako</text>
</g>
<!-- platform -->
<g id="node9" class="node"><title>platform</title>
<ellipse fill="none" stroke="black" cx="380.696" cy="-18" rx="41.6928" ry="18"/>
<text text-anchor="middle" x="380.696" y="-14.3" font-family="Times,serif" font-size="14.00">platform</text>
</g>
<!-- OS&#45;&gt;platform -->
<g id="edge10" class="edge"><title>OS&#45;&gt;platform</title>
<path fill="none" stroke="cyan" d="M345.179,-87.6111C351.469,-75.4601 360.166,-58.6599 367.379,-44.7254"/>
<polygon fill="cyan" stroke="cyan" points="370.599,-46.1183 372.088,-35.6286 364.382,-42.9003 370.599,-46.1183"/>
<text text-anchor="middle" x="367.196" y="-57.8" font-family="Times,serif" font-size="14.00">in</text>
</g>
<!-- PC -->
<g id="node5" class="node"><title>PC</title>
<ellipse fill="none" stroke="black" cx="289.696" cy="-279" rx="27" ry="18"/>
<text text-anchor="middle" x="289.696" y="-275.3" font-family="Times,serif" font-size="14.00">PC</text>
</g>
<!-- PC&#45;&gt;Linux -->
<g id="edge4" class="edge"><title>PC&#45;&gt;Linux</title>
<path fill="none" stroke="red" d="M280.154,-261.803C275.546,-251.797 271.941,-238.843 276.696,-228 279.095,-222.527 282.82,-217.533 287.017,-213.138"/>
<polygon fill="red" stroke="red" points="289.412,-215.689 294.376,-206.329 284.659,-210.551 289.412,-215.689"/>
<text text-anchor="middle" x="286.196" y="-231.8" font-family="Times,serif" font-size="14.00">use</text>
</g>
<!-- hardware -->
<g id="node8" class="node"><title>hardware</title>
<ellipse fill="none" stroke="black" cx="407.696" cy="-192" rx="43.5923" ry="18"/>
<text text-anchor="middle" x="407.696" y="-188.3" font-family="Times,serif" font-size="14.00">hardware</text>
</g>
<!-- PC&#45;&gt;hardware -->
<g id="edge7" class="edge"><title>PC&#45;&gt;hardware</title>
<path fill="none" stroke="blue" d="M307.361,-265.275C326.175,-251.723 356.256,-230.054 378.581,-213.973"/>
<polygon fill="blue" stroke="blue" points="380.649,-216.796 386.717,-208.111 376.558,-211.116 380.649,-216.796"/>
<text text-anchor="middle" x="366.696" y="-231.8" font-family="Times,serif" font-size="14.00">ako</text>
</g>
<!-- Raspberry -->
<g id="node6" class="node"><title>Raspberry</title>
<ellipse fill="none" stroke="black" cx="352.696" cy="-366" rx="46.5926" ry="18"/>
<text text-anchor="middle" x="352.696" y="-362.3" font-family="Times,serif" font-size="14.00">Raspberry</text>
</g>
<!-- Raspberry&#45;&gt;Linux -->
<g id="edge5" class="edge"><title>Raspberry&#45;&gt;Linux</title>
<path fill="none" stroke="red" d="M353.604,-347.954C354.44,-321.435 353.758,-269.078 338.696,-228 337.308,-224.217 335.419,-220.453 333.304,-216.873"/>
<polygon fill="red" stroke="red" points="336.173,-214.865 327.745,-208.445 330.33,-218.719 336.173,-214.865"/>
<text text-anchor="middle" x="362.196" y="-275.3" font-family="Times,serif" font-size="14.00">use</text>
</g>
<!-- Raspberry&#45;&gt;hardware -->
<g id="edge8" class="edge"><title>Raspberry&#45;&gt;hardware</title>
<path fill="none" stroke="blue" d="M360.438,-348.075C362.907,-342.389 365.552,-335.974 367.696,-330 381.2,-292.362 393.574,-247.734 400.876,-219.886"/>
<polygon fill="blue" stroke="blue" points="404.296,-220.642 403.418,-210.084 397.52,-218.885 404.296,-220.642"/>
<text text-anchor="middle" x="399.696" y="-275.3" font-family="Times,serif" font-size="14.00">ako</text>
</g>
<!-- embedded_PC -->
<g id="node12" class="node"><title>embedded_PC</title>
<ellipse fill="none" stroke="black" cx="162.696" cy="-279" rx="62.2891" ry="18"/>
<text text-anchor="middle" x="162.696" y="-275.3" font-family="Times,serif" font-size="14.00">embedded_PC</text>
</g>
<!-- Raspberry&#45;&gt;embedded_PC -->
<g id="edge16" class="edge"><title>Raspberry&#45;&gt;embedded_PC</title>
<path fill="none" stroke="blue" d="M329.121,-350.227C311.52,-339.579 286.647,-325.324 263.696,-315 247.858,-307.876 230.104,-301.283 213.95,-295.786"/>
<polygon fill="blue" stroke="blue" points="214.724,-292.354 204.13,-292.509 212.508,-298.994 214.724,-292.354"/>
<text text-anchor="middle" x="304.696" y="-318.8" font-family="Times,serif" font-size="14.00">ako</text>
</g>
<!-- MR3020 -->
<g id="node7" class="node"><title>MR3020</title>
<ellipse fill="none" stroke="black" cx="479.696" cy="-366" rx="42.4939" ry="18"/>
<text text-anchor="middle" x="479.696" y="-362.3" font-family="Times,serif" font-size="14.00">MR3020</text>
</g>
<!-- MR3020&#45;&gt;Linux -->
<g id="edge6" class="edge"><title>MR3020&#45;&gt;Linux</title>
<path fill="none" stroke="red" d="M471.669,-348.069C460.732,-326.204 439.523,-287.785 413.696,-261 393.775,-240.341 366.659,-222.241 345.842,-209.92"/>
<polygon fill="red" stroke="red" points="347.467,-206.816 337.058,-204.84 343.962,-212.876 347.467,-206.816"/>
<text text-anchor="middle" x="451.196" y="-275.3" font-family="Times,serif" font-size="14.00">use</text>
</g>
<!-- router -->
<g id="node11" class="node"><title>router</title>
<ellipse fill="none" stroke="black" cx="532.696" cy="-279" rx="31.6951" ry="18"/>
<text text-anchor="middle" x="532.696" y="-275.3" font-family="Times,serif" font-size="14.00">router</text>
</g>
<!-- MR3020&#45;&gt;router -->
<g id="edge12" class="edge"><title>MR3020&#45;&gt;router</title>
<path fill="none" stroke="blue" d="M490.167,-348.207C497.888,-335.824 508.517,-318.778 517.217,-304.824"/>
<polygon fill="blue" stroke="blue" points="520.285,-306.519 522.606,-296.182 514.345,-302.815 520.285,-306.519"/>
<text text-anchor="middle" x="518.696" y="-318.8" font-family="Times,serif" font-size="14.00">ako</text>
</g>
<!-- hardware&#45;&gt;platform -->
<g id="edge9" class="edge"><title>hardware&#45;&gt;platform</title>
<path fill="none" stroke="cyan" d="M405.008,-173.879C400.318,-144.001 390.603,-82.1129 384.977,-46.2736"/>
<polygon fill="cyan" stroke="cyan" points="388.381,-45.3878 383.372,-36.0516 381.465,-46.4734 388.381,-45.3878"/>
<text text-anchor="middle" x="403.196" y="-101.3" font-family="Times,serif" font-size="14.00">in</text>
</g>
<!-- PC104 -->
<g id="node10" class="node"><title>PC104</title>
<ellipse fill="none" stroke="black" cx="227.696" cy="-366" rx="34.394" ry="18"/>
<text text-anchor="middle" x="227.696" y="-362.3" font-family="Times,serif" font-size="14.00">PC104</text>
</g>
<!-- PC104&#45;&gt;PC -->
<g id="edge11" class="edge"><title>PC104&#45;&gt;PC</title>
<path fill="none" stroke="blue" d="M230.54,-347.619C232.84,-337.42 236.859,-324.677 243.696,-315 248.418,-308.315 254.801,-302.337 261.306,-297.294"/>
<polygon fill="blue" stroke="blue" points="263.408,-300.094 269.497,-291.423 259.33,-294.404 263.408,-300.094"/>
<text text-anchor="middle" x="253.696" y="-318.8" font-family="Times,serif" font-size="14.00">ako</text>
</g>
<!-- PC104&#45;&gt;embedded_PC -->
<g id="edge14" class="edge"><title>PC104&#45;&gt;embedded_PC</title>
<path fill="none" stroke="blue" d="M215.469,-349.012C205.94,-336.55 192.537,-319.024 181.624,-304.752"/>
<polygon fill="blue" stroke="blue" points="184.389,-302.606 175.534,-296.789 178.828,-306.858 184.389,-302.606"/>
<text text-anchor="middle" x="209.696" y="-318.8" font-family="Times,serif" font-size="14.00">ako</text>
</g>
<!-- router&#45;&gt;hardware -->
<g id="edge13" class="edge"><title>router&#45;&gt;hardware</title>
<path fill="none" stroke="blue" d="M518.231,-262.796C507.651,-252.208 492.599,-238.212 477.696,-228 467.9,-221.288 456.633,-215.079 446.043,-209.813"/>
<polygon fill="blue" stroke="blue" points="447.492,-206.626 436.964,-205.438 444.453,-212.932 447.492,-206.626"/>
<text text-anchor="middle" x="504.696" y="-231.8" font-family="Times,serif" font-size="14.00">ako</text>
</g>
<!-- embedded_PC&#45;&gt;PC -->
<g id="edge15" class="edge"><title>embedded_PC&#45;&gt;PC</title>
<path fill="none" stroke="blue" d="M225.451,-279C234.591,-279 243.751,-279 252.174,-279"/>
<polygon fill="blue" stroke="blue" points="252.392,-282.5 262.392,-279 252.392,-275.5 252.392,-282.5"/>
<text text-anchor="middle" x="243.893" y="-285.8" font-family="Times,serif" font-size="14.00">ako</text>
</g>
</g>
</svg>
