<?xml version="1.0" encoding="UTF-8" standalone="no"?>
<!DOCTYPE svg PUBLIC "-//W3C//DTD SVG 1.1//EN"
 "http://www.w3.org/Graphics/SVG/1.1/DTD/svg11.dtd">
<!-- Generated by graphviz version 2.38.0 (20140413.2041)
 -->
<!-- Title: %3 Pages: 1 -->
<svg width="276pt" height="305pt"
 viewBox="0.00 0.00 275.80 305.00" xmlns="http://www.w3.org/2000/svg" xmlns:xlink="http://www.w3.org/1999/xlink">
<g id="graph0" class="graph" transform="scale(1 1) rotate(0) translate(4 301)">
<title>%3</title>
<polygon fill="white" stroke="none" points="-4,4 -4,-301 271.796,-301 271.796,4 -4,4"/>
<!-- x86 -->
<g id="node1" class="node"><title>x86</title>
<ellipse fill="none" stroke="black" cx="235.796" cy="-192" rx="27" ry="18"/>
<text text-anchor="middle" x="235.796" y="-188.3" font-family="Times,serif" font-size="14.00">x86</text>
</g>
<!-- CPU -->
<g id="node2" class="node"><title>CPU</title>
<ellipse fill="none" stroke="black" cx="153.796" cy="-105" rx="27.8951" ry="18"/>
<text text-anchor="middle" x="153.796" y="-101.3" font-family="Times,serif" font-size="14.00">CPU</text>
</g>
<!-- x86&#45;&gt;CPU -->
<g id="edge1" class="edge"><title>x86&#45;&gt;CPU</title>
<path fill="none" stroke="blue" d="M221.513,-176.194C208.696,-162.909 189.71,-143.228 175.101,-128.084"/>
<polygon fill="blue" stroke="blue" points="177.377,-125.403 167.915,-120.636 172.339,-130.263 177.377,-125.403"/>
<text text-anchor="middle" x="209.796" y="-144.8" font-family="Times,serif" font-size="14.00">ako</text>
</g>
<!-- hardware -->
<g id="node8" class="node"><title>hardware</title>
<ellipse fill="none" stroke="black" cx="153.796" cy="-18" rx="43.5923" ry="18"/>
<text text-anchor="middle" x="153.796" y="-14.3" font-family="Times,serif" font-size="14.00">hardware</text>
</g>
<!-- CPU&#45;&gt;hardware -->
<g id="edge7" class="edge"><title>CPU&#45;&gt;hardware</title>
<path fill="none" stroke="cyan" d="M153.796,-86.799C153.796,-75.1626 153.796,-59.5479 153.796,-46.2368"/>
<polygon fill="cyan" stroke="cyan" points="157.296,-46.1754 153.796,-36.1754 150.296,-46.1755 157.296,-46.1754"/>
<text text-anchor="middle" x="159.296" y="-57.8" font-family="Times,serif" font-size="14.00">in</text>
</g>
<!-- ARM -->
<g id="node3" class="node"><title>ARM</title>
<ellipse fill="none" stroke="black" cx="59.7958" cy="-192" rx="31.3957" ry="18"/>
<text text-anchor="middle" x="59.7958" y="-188.3" font-family="Times,serif" font-size="14.00">ARM</text>
</g>
<!-- ARM&#45;&gt;CPU -->
<g id="edge2" class="edge"><title>ARM&#45;&gt;CPU</title>
<path fill="none" stroke="blue" d="M76.1694,-176.194C91.1771,-162.623 113.564,-142.38 130.445,-127.115"/>
<polygon fill="blue" stroke="blue" points="133.164,-129.375 138.234,-120.072 128.469,-124.183 133.164,-129.375"/>
<text text-anchor="middle" x="122.796" y="-144.8" font-family="Times,serif" font-size="14.00">ako</text>
</g>
<!-- MIPS -->
<g id="node4" class="node"><title>MIPS</title>
<ellipse fill="none" stroke="black" cx="153.796" cy="-192" rx="31.6951" ry="18"/>
<text text-anchor="middle" x="153.796" y="-188.3" font-family="Times,serif" font-size="14.00">MIPS</text>
</g>
<!-- MIPS&#45;&gt;CPU -->
<g id="edge3" class="edge"><title>MIPS&#45;&gt;CPU</title>
<path fill="none" stroke="blue" d="M153.796,-173.799C153.796,-162.163 153.796,-146.548 153.796,-133.237"/>
<polygon fill="blue" stroke="blue" points="157.296,-133.175 153.796,-123.175 150.296,-133.175 157.296,-133.175"/>
<text text-anchor="middle" x="163.796" y="-144.8" font-family="Times,serif" font-size="14.00">ako</text>
</g>
<!-- PC -->
<g id="node5" class="node"><title>PC</title>
<ellipse fill="none" stroke="black" cx="240.796" cy="-279" rx="27" ry="18"/>
<text text-anchor="middle" x="240.796" y="-275.3" font-family="Times,serif" font-size="14.00">PC</text>
</g>
<!-- PC&#45;&gt;x86 -->
<g id="edge4" class="edge"><title>PC&#45;&gt;x86</title>
<path fill="none" stroke="red" d="M239.784,-260.799C239.1,-249.163 238.181,-233.548 237.398,-220.237"/>
<polygon fill="red" stroke="red" points="240.887,-219.953 236.806,-210.175 233.9,-220.364 240.887,-219.953"/>
<text text-anchor="middle" x="248.296" y="-231.8" font-family="Times,serif" font-size="14.00">use</text>
</g>
<!-- Raspberry -->
<g id="node6" class="node"><title>Raspberry</title>
<ellipse fill="none" stroke="black" cx="46.7958" cy="-279" rx="46.5926" ry="18"/>
<text text-anchor="middle" x="46.7958" y="-275.3" font-family="Times,serif" font-size="14.00">Raspberry</text>
</g>
<!-- Raspberry&#45;&gt;ARM -->
<g id="edge5" class="edge"><title>Raspberry&#45;&gt;ARM</title>
<path fill="none" stroke="red" d="M49.4266,-260.799C51.2063,-249.163 53.5944,-233.548 55.6302,-220.237"/>
<polygon fill="red" stroke="red" points="59.1169,-220.59 57.169,-210.175 52.1973,-219.531 59.1169,-220.59"/>
<text text-anchor="middle" x="64.2958" y="-231.8" font-family="Times,serif" font-size="14.00">use</text>
</g>
<!-- MR3020 -->
<g id="node7" class="node"><title>MR3020</title>
<ellipse fill="none" stroke="black" cx="153.796" cy="-279" rx="42.4939" ry="18"/>
<text text-anchor="middle" x="153.796" y="-275.3" font-family="Times,serif" font-size="14.00">MR3020</text>
</g>
<!-- MR3020&#45;&gt;MIPS -->
<g id="edge6" class="edge"><title>MR3020&#45;&gt;MIPS</title>
<path fill="none" stroke="red" d="M153.796,-260.799C153.796,-249.163 153.796,-233.548 153.796,-220.237"/>
<polygon fill="red" stroke="red" points="157.296,-220.175 153.796,-210.175 150.296,-220.175 157.296,-220.175"/>
<text text-anchor="middle" x="163.296" y="-231.8" font-family="Times,serif" font-size="14.00">use</text>
</g>
</g>
</svg>
